<svg width="42" height="42" viewBox="0 0 42 42" xmlns="http://www.w3.org/2000/svg"><title>E0C69FAC-04C1-4B0D-A9C1-3A637B125694</title><path d="M.666 0a.741.741 0 0 0-.064.006.741.741 0 0 0-.602.74V40.77c0 .41.332.741.741.741h40.022c.41 0 .741-.332.741-.741V.747a.741.741 0 0 0-.74-.741H.74A.741.741 0 0 0 .666 0zm.816 1.488h38.54v4.447H1.482V1.488zm2.149 1.477a.741.741 0 0 0-.064.005.741.741 0 0 0-.602.742.741.741 0 1 0 .74-.742.741.741 0 0 0-.074-.005zm2.964 0a.741.741 0 0 0-.064.005.741.741 0 0 0-.602.742.741.741 0 1 0 .741-.742.741.741 0 0 0-.075-.005zm2.965 0a.741.741 0 0 0-.064.005.741.741 0 0 0-.602.742.741.741 0 1 0 .741-.742.741.741 0 0 0-.075-.005zM1.482 7.417h38.54v32.611H1.482V7.418zM4.3 9.632a.741.741 0 0 0-.084.009.741.741 0 0 0-.51.74v10.377c0 .41.333.741.742.741h10.376c.41 0 .741-.332.741-.741V10.382a.741.741 0 0 0-.741-.741H4.447a.741.741 0 0 0-.148-.009zm13.489.009v1.482h7.411V9.641h-7.411zm-12.6 1.482h8.894v8.894H5.188v-8.894zm12.6 1.482v1.483h19.27v-1.483h-19.27zm0 2.965v1.482h16.305V15.57H17.788zm0 2.964v1.483h16.305v-1.483H17.788zm0 2.965v1.482h16.305V21.5H17.788zM4.447 22.981v1.483h10.376V22.98H4.447zm13.34 1.483v1.482h5.93v-1.482h-5.93zm-13.34 1.482v1.482h5.93v-1.482h-5.93zm8.662 5.93c-1.088 0-1.992.855-1.992 1.945v1.25c0 1.09.904 1.992 1.992 1.992h3.799a2.006 2.006 0 0 0 1.991-1.992v-1.25c0-1.09-.903-1.946-1.991-1.946h-3.799zm10.376 0c-1.088 0-1.992.855-1.992 1.945v1.25c0 1.09.904 1.992 1.992 1.992h3.799a2.006 2.006 0 0 0 1.991-1.992v-1.25c0-1.09-.903-1.946-1.991-1.946h-3.799zM13.11 33.356h3.799c.308 0 .51.185.51.464v1.25c0 .279-.202.51-.51.51h-3.799a.495.495 0 0 1-.51-.51v-1.25c0-.279.202-.464.51-.464zm10.376 0h3.799c.308 0 .51.185.51.464v1.25c0 .279-.202.51-.51.51h-3.799a.495.495 0 0 1-.51-.51v-1.25c0-.279.202-.464.51-.464z" fill="#37CF4F" fill-rule="evenodd"/></svg>