<?xml version="1.0" encoding="UTF-8" standalone="no"?>
<svg width="24px" height="33px" viewBox="0 0 24 33" version="1.1" xmlns="http://www.w3.org/2000/svg" xmlns:xlink="http://www.w3.org/1999/xlink">
    <!-- Generator: sketchtool 40 (33762) - http://www.bohemiancoding.com/sketch -->
    <title>765064CF-E11D-469D-90A5-52B2A80E9E4C</title>
    <desc>Created with sketchtool.</desc>
    <defs></defs>
    <g id="Page-1" stroke="none" stroke-width="1" fill="none" fill-rule="evenodd">
        <g id="Landing" transform="translate(-138.000000, -2000.000000)" fill="#37CF4F">
            <g id="Content-" transform="translate(-4.000000, -31.000000)">
                <g id="security" transform="translate(3.000000, 1847.000000)">
                    <g id="Text" transform="translate(139.000000, 179.000000)">
                        <path d="M11.6913065,5.03125 C7.01772444,5.03125 3.20407666,8.84489557 3.20407666,13.5184798 L3.20407666,18.2336075 L1.31802559,18.2336075 C1.06788436,18.2334923 0.827955173,18.3328095 0.651078595,18.5096861 C0.474202018,18.6865626 0.374884828,18.9264918 0.37500005,19.1766331 L0.37500005,36.0882244 C0.374884828,36.3383656 0.474202018,36.5782948 0.651078595,36.7551714 C0.827955173,36.9320479 1.06788436,37.0313651 1.31802559,37.0312499 L22.0645874,37.0312499 C22.3147286,37.0313651 22.5546578,36.9320479 22.7315344,36.7551714 C22.908411,36.5782948 23.0077282,36.3383656 23.0076129,36.0882244 L23.0076129,19.1766331 C23.0077282,18.9264918 22.908411,18.6865626 22.7315344,18.5096861 C22.5546578,18.3328095 22.3147286,18.2334923 22.0645874,18.2336075 L20.1785363,18.2336075 L20.1785363,13.5184798 C20.1785363,8.84489557 16.3648888,5.03125 11.6913065,5.03125 L11.6913065,5.03125 Z M11.6913065,6.91730107 C15.3461572,6.91730107 18.2924853,9.86366492 18.2924853,13.5184798 L18.2924853,18.2336075 L5.09012774,18.2336075 L5.09012774,13.5184798 C5.09012774,9.86366492 8.03645557,6.91730107 11.6913065,6.91730107 L11.6913065,6.91730107 Z M2.26105113,20.1196586 L3.95849709,20.1196586 L4.27283894,20.1196586 L19.0469057,20.1196586 L19.3612475,20.1196586 L21.1215619,20.1196586 L21.1215619,35.1451988 L2.26105113,35.1451988 L2.26105113,20.1196586 L2.26105113,20.1196586 Z M11.5655698,23.8288924 C11.0692709,23.8939983 10.7104128,24.3356697 10.748281,24.8347863 L10.748281,30.4929395 C10.748281,31.0137581 11.1704879,31.435965 11.6913065,31.435965 C12.2121251,31.435965 12.634332,31.0137581 12.634332,30.4929395 L12.634332,24.8347863 C12.6561595,24.5505118 12.5481438,24.2716336 12.3405259,24.0762284 C12.1329079,23.8808233 11.8480009,23.789892 11.5655698,23.8288924 L11.5655698,23.8288924 Z" id="Shape"></path>
                    </g>
                </g>
            </g>
        </g>
    </g>
</svg>