<svg width="44" height="37" viewBox="0 0 44 37" xmlns="http://www.w3.org/2000/svg"><title>092BB9F6-D115-4843-9E98-851D876896A4</title><path d="M.733 17.757a.733.733 0 0 0-.733.732v14.659c0 .404.328.732.733.732h7.326a.733.733 0 0 0 .733-.732v-1.406l14.386 4.873a.733.733 0 0 0 .055.017c1.594.404 3.433.161 4.824-.773l-.058.037 14.235-7.738h.011l.35-.198c1.183-.67 1.69-2.126 1.162-3.375-.45-1.064-1.333-1.551-2.024-1.652-.691-.101-1.257.097-1.257.097a.733.733 0 0 0-.075.029l-7.81 3.624c.01-.1.03-.198.03-.3 0-1.647-1.365-2.984-3.018-2.984h-6.508c-.028-.05-.06-.118-.086-.166a7.385 7.385 0 0 0-1.302-1.706 7.604 7.604 0 0 0-5.337-2.161H8.792v-.87a.733.733 0 0 0-.733-.734H.733v-.005zm.733 1.465h5.861v13.193H1.465V19.222zm7.326 1.606h7.578c1.696 0 3.213.665 4.312 1.741a5.909 5.909 0 0 1 1.042 1.371c.115.208.193.335.255.479l.191.44h7.432c.878 0 1.552.67 1.552 1.518a1.5 1.5 0 0 1-.927 1.397h-.02a1.603 1.603 0 0 1-.604.117H19.408v1.466h10.195c.284 0 .554-.053.815-.126h.003a.733.733 0 0 0 .307-.083l10.232-4.74c.012 0 .254-.08.56-.035.315.045.618.129.888.77.242.572.021 1.212-.538 1.529l-.34.194-14.232 7.736a.733.733 0 0 0-.057.034c-.964.648-2.461.863-3.633.57L9.007 30.262a.733.733 0 0 0-.215-.043v-9.39zM30.495 0c-.316 0-.525.144-.673.263a2.15 2.15 0 0 0-.355.378 8.74 8.74 0 0 0-.552.856c-.172.292-.338.573-.47.762-.023.034-.036.04-.06.063-.033-.015-.046 0-.083-.02-.21-.094-.5-.252-.799-.412a8.496 8.496 0 0 0-.913-.444 2.06 2.06 0 0 0-.5-.14 1.037 1.037 0 0 0-.71.126c-.273.16-.383.383-.45.56a2.139 2.139 0 0 0-.12.505c-.044.331-.046.68-.05 1.019a13.21 13.21 0 0 1-.025.896c-.003.04-.015.05-.023.083-.032.014-.043.024-.083.028-.23.025-.555.03-.893.04-.338.015-.686.02-1.017.07a2.133 2.133 0 0 0-.503.134 1.037 1.037 0 0 0-.553.46 1.04 1.04 0 0 0-.109.714c.03.187.088.34.152.495.128.309.297.613.464.907.166.295.328.579.426.788.017.036.015.05.023.083-.023.025-.027.04-.06.063-.186.136-.465.308-.753.486-.287.179-.583.361-.844.57a2.1 2.1 0 0 0-.37.36c-.116.15-.252.364-.249.68.003.315.144.522.264.67.12.147.245.255.377.357.266.203.565.38.857.553.29.172.572.338.761.47.034.023.038.037.063.062-.009.032-.004.044-.02.08-.094.211-.252.498-.412.796-.16.298-.322.605-.444.916-.06.156-.114.313-.14.501-.026.188-.038.439.123.71.16.272.387.382.564.45.177.067.34.098.507.12.331.044.678.044 1.016.049.338 0 .666 0 .896.026.04 0 .048.014.08.022.009.033.021.042.026.084.024.229.032.555.043.893.01.338.024.685.074 1.016.025.165.058.328.13.504.07.176.185.398.46.552.274.154.526.14.713.11.187-.031.344-.086.498-.15.309-.129.61-.3.905-.466.294-.167.578-.329.787-.427.037-.017.05-.014.083-.023.025.024.039.027.063.06.136.187.309.466.487.753.178.288.36.584.57.845.104.13.213.256.363.372.15.117.363.25.679.246.315 0 .522-.14.67-.26.147-.12.253-.248.354-.381.204-.266.381-.565.553-.856.172-.291.338-.575.47-.764.022-.033.034-.034.057-.058.033.015.048 0 .086.02.21.094.5.247.798.407.298.16.602.328.914.45.155.061.313.112.5.137.189.026.439.038.71-.123.272-.16.383-.387.45-.564.068-.178.099-.341.12-.507.044-.332.046-.678.05-1.016.002-.339.005-.664.025-.894.003-.04.015-.052.023-.085a.21.21 0 0 1 .083-.023c.23-.024.555-.036.893-.046.338-.015.686-.02 1.016-.072a2.11 2.11 0 0 0 .504-.129c.176-.071.398-.188.553-.463.155-.276.139-.523.109-.71a2.148 2.148 0 0 0-.15-.499c-.128-.309-.3-.613-.466-.907-.166-.295-.328-.579-.427-.787-.017-.037-.014-.05-.022-.083.023-.024.027-.037.06-.06.186-.135.465-.31.753-.487.287-.178.583-.36.844-.57.13-.104.256-.214.372-.364.117-.15.25-.36.247-.675a1.04 1.04 0 0 0-.261-.673 2.145 2.145 0 0 0-.38-.355 8.564 8.564 0 0 0-.857-.553 13.578 13.578 0 0 1-.761-.469c-.035-.023-.039-.038-.063-.063.009-.032.004-.044.02-.08.093-.211.252-.5.412-.799.16-.298.322-.604.444-.916.06-.156.114-.31.14-.498a1.037 1.037 0 0 0-.123-.71 1.046 1.046 0 0 0-.564-.453 2.18 2.18 0 0 0-.507-.12c-.331-.044-.678-.044-1.016-.048-.338 0-.666 0-.896-.023-.04 0-.048-.017-.08-.026-.01-.032-.022-.042-.026-.083-.024-.23-.033-.555-.043-.893a8.583 8.583 0 0 0-.074-1.02 2.123 2.123 0 0 0-.13-.5 1.035 1.035 0 0 0-.46-.553 1.036 1.036 0 0 0-.713-.109c-.187.03-.344.085-.498.149-.31.129-.61.3-.905.467-.294.166-.579.328-.787.426-.037.018-.05.017-.083.026-.025-.024-.039-.032-.063-.066a13.717 13.717 0 0 1-.487-.753c-.178-.287-.36-.583-.57-.844a2.118 2.118 0 0 0-.36-.37A1.04 1.04 0 0 0 30.495 0zm.017 1.72c.108.153.219.309.347.516.173.28.353.579.547.845.193.265.313.563.861.704.548.14.794-.063 1.091-.203.297-.14.597-.313.885-.476.212-.12.385-.207.552-.289.017.186.036.38.043.624.01.33.017.676.052 1.002.034.327-.01.644.395 1.04.404.395.717.344 1.045.372.327.028.677.028 1.007.031.245 0 .433.014.619.026-.078.169-.157.344-.272.558-.156.291-.328.596-.461.896-.133.3-.33.552-.178 1.097.153.545.452.657.722.844.27.188.572.362.856.53.21.125.37.23.524.335-.152.107-.308.218-.515.346-.281.174-.582.354-.848.547-.266.194-.56.314-.701.862-.141.548.06.793.2 1.09.14.298.316.598.478.885.12.213.205.386.286.553a9.085 9.085 0 0 1-.618.04c-.33.015-.678.02-1.005.054-.327.036-.643-.016-1.039.393-.396.404-.345.72-.372 1.047-.028.328-.029.675-.032 1.005-.003.245-.015.439-.028.624a9.688 9.688 0 0 1-.559-.277c-.29-.156-.593-.325-.893-.458-.3-.134-.551-.33-1.096-.178-.545.152-.66.452-.848.722-.187.27-.362.571-.53.856-.123.21-.23.37-.334.524a9.947 9.947 0 0 1-.344-.519c-.174-.28-.353-.578-.547-.844-.193-.266-.313-.56-.861-.702-.549-.14-.797.06-1.094.2-.297.14-.597.317-.885.479-.212.12-.385.205-.552.286a9.689 9.689 0 0 1-.04-.621c-.01-.33-.017-.678-.052-1.005-.034-.327.009-.643-.395-1.04-.404-.395-.72-.34-1.048-.368-.327-.028-.675-.03-1.005-.032-.244 0-.435-.014-.62-.026.077-.17.161-.346.277-.56.156-.292.324-.594.458-.894.133-.3.33-.552.177-1.097-.152-.545-.451-.66-.721-.847-.27-.188-.572-.359-.856-.527-.21-.123-.37-.23-.524-.335.152-.107.308-.218.515-.346.28-.174.58-.354.845-.547.265-.193.563-.314.704-.862.14-.548-.06-.793-.2-1.09-.14-.298-.316-.6-.478-.888a9.684 9.684 0 0 1-.287-.55c.186-.017.375-.035.619-.043.33-.014.678-.016 1.005-.051.326-.035.643.014 1.039-.395.396-.405.344-.718.372-1.045.028-.328.026-.672.029-1.002.003-.244.015-.441.028-.627.17.077.346.16.561.275.291.156.593.324.894.458.3.133.551.332 1.096.18.545-.152.66-.452.848-.721.187-.27.359-.57.526-.854.124-.209.231-.372.335-.526zm-5.768 8.604c.034 3.227 2.695 5.832 5.923 5.797 3.227-.034 5.832-2.696 5.797-5.923-.034-3.228-2.696-5.832-5.923-5.798-3.228.034-5.832 2.696-5.797 5.924zm5.811-4.458a4.384 4.384 0 0 1 4.443 4.346 4.386 4.386 0 0 1-4.348 4.443 4.384 4.384 0 0 1-4.44-4.348 4.382 4.382 0 0 1 4.345-4.44zm1.89 1.463l-4.773 4.775 1.091 1.088 4.773-4.772-1.091-1.09zm-3.307.733a.733.733 0 1 0 0 1.466.733.733 0 0 0 0-1.466zm2.932 3.003a.733.733 0 1 0 0 1.466.733.733 0 0 0 0-1.466z" fill="#37CF4F" fill-rule="evenodd"/></svg>