<svg width="24" height="37" viewBox="0 0 24 37" xmlns="http://www.w3.org/2000/svg"><title>1E592413-C91A-4979-8CC8-657CD1723087</title><path d="M2.446.187c-1.03 0-1.73.761-1.73 1.73v32.54c0 .967.7 1.73 1.73 1.73h19.03c1.03 0 1.73-.765 1.73-1.73V1.917c0-.969-.7-1.73-1.73-1.73H2.447zm19.03 33.32c0 .58-.133.95-.748.95H3.243c-.52 0-.797-.44-.797-1.019v-4.172h19.03v4.241zm-19.03-5.97V7.106h19.03v20.43H2.447zm19.03-22.16H2.447s-.058-3.46 0-3.46c0 0 19.03-.091 19.03 0v3.46zm-9.515 27.35a.865.865 0 1 0 0-1.73.865.865 0 0 0 0 1.73z" fill="#37CF4F" fill-rule="evenodd"/></svg>