<?xml version="1.0" encoding="UTF-8" standalone="no"?>
<svg width="24px" height="37px" viewBox="0 0 24 37" version="1.1" xmlns="http://www.w3.org/2000/svg" xmlns:xlink="http://www.w3.org/1999/xlink">
    <!-- Generator: sketchtool 40 (33762) - http://www.bohemiancoding.com/sketch -->
    <title>1E592413-C91A-4979-8CC8-657CD1723087</title>
    <desc>Created with sketchtool.</desc>
    <defs></defs>
    <g id="Page-1" stroke="none" stroke-width="1" fill="none" fill-rule="evenodd">
        <g id="Landing" transform="translate(-820.000000, -2946.000000)" fill="#37CF4F">
            <g id="Content-" transform="translate(-4.000000, -31.000000)">
                <g id="Available" transform="translate(3.000000, 2806.000000)">
                    <g id="text" transform="translate(821.000000, 170.000000)">
                        <g id="Text">
                            <path d="M2.44627672,1.187 C1.41669456,1.187 0.716,1.94845678 0.716,2.91727672 L0.716,35.4567233 C0.716,36.4236143 1.41669456,37.187 2.44627672,37.187 L21.4769094,37.187 C22.5064916,37.187 23.2067039,36.4216853 23.2067039,35.4567233 L23.2067039,2.91727672 C23.2067039,1.94845678 22.5064916,1.187 21.4769094,1.187 L2.44627672,1.187 Z M21.4769094,34.5071929 C21.4769094,35.086363 21.3428467,35.4567233 20.7275086,35.4567233 L3.24341925,35.4567233 C2.72211793,35.4567233 2.44627672,35.017885 2.44627672,34.4382326 L2.44627672,30.2658931 L21.4769094,30.2658931 L21.4769094,34.5071929 L21.4769094,34.5071929 Z M2.44627672,28.5360987 L2.44627672,8.10714239 L21.4769094,8.10714239 L21.4769094,28.5360987 L2.44627672,28.5360987 Z M21.4769094,6.37686567 L2.44627672,6.37686567 C2.44627672,6.37686567 2.38792569,2.91679448 2.44627672,2.91679448 C2.44627672,2.91679448 21.4769094,2.82565114 21.4769094,2.91679448 L21.4769094,6.37686567 L21.4769094,6.37686567 Z M11.9613519,33.7264466 C12.4387694,33.7264466 12.8260081,33.3392079 12.8260081,32.8613082 C12.8260081,32.3834085 12.4387694,31.9961698 11.9613519,31.9961698 C11.4839345,31.9961698 11.0962136,32.3834085 11.0962136,32.8613082 C11.0962136,33.3392079 11.4839345,33.7264466 11.9613519,33.7264466 L11.9613519,33.7264466 Z" id="Shape"></path>
                        </g>
                    </g>
                </g>
            </g>
        </g>
    </g>
</svg>