<svg width="31" height="26" viewBox="0 0 31 26" xmlns="http://www.w3.org/2000/svg"><title>FC3F94AC-C370-4146-A5BF-CADD64865934</title><path d="M29.99 9.817h-.493v-3.63A2.487 2.487 0 0 0 27.03 3.72H2.511c-.404 0-.808-.493-.808-.987v-.179c0-.448.36-.807.807-.807h22.862c.449 0 .807.359.807.807 0 .448.359.807.807.807a.804.804 0 0 0 .807-.807A2.487 2.487 0 0 0 25.328.09H2.466A2.487 2.487 0 0 0 0 2.555V23.266a2.487 2.487 0 0 0 2.466 2.465h24.43a2.487 2.487 0 0 0 2.466-2.465v-4.752h.493a.804.804 0 0 0 .807-.807v-7.083c.135-.448-.224-.807-.672-.807zM21.697 16.9c-1.435 0-2.6-1.21-2.6-2.734 0-1.48 1.165-2.735 2.6-2.735h7.44v5.424h-7.44v.045zm6.096 6.366a.804.804 0 0 1-.807.806H2.556a.804.804 0 0 1-.808-.806V5.334h25.283c.448 0 .807.36.807.807v3.631h-6.141c-2.331 0-4.26 1.973-4.26 4.349 0 2.42 1.884 4.348 4.26 4.348h6.096v4.797z" fill="#37CF4F" fill-rule="evenodd"/></svg>