<svg width="30" height="41" viewBox="0 0 30 41" xmlns="http://www.w3.org/2000/svg"><title>FE19E968-CCF2-4C07-82BA-029D36372D89</title><path d="M22.914 0v.006a.74.74 0 0 0-.13.017H0V38.48h17.749v2.12l2.958-1.97 2.959 1.97v-2.12h5.916V6.795a.74.74 0 0 0 0-.237v-.185l-.124-.122a.74.74 0 0 0-.165-.176L23.521.303a.74.74 0 0 0-.162-.161l-.127-.128h-.17A.74.74 0 0 0 22.914 0zM1.48 1.496h20.707v5.917h5.917v29.582h-4.437v-4.117c.9-.813 1.479-1.976 1.479-3.279a4.449 4.449 0 0 0-4.438-4.437 4.449 4.449 0 0 0-4.437 4.437c0 1.303.579 2.466 1.48 3.28v4.116H1.478V1.496zm22.187 1.046l3.391 3.392h-3.391V2.542zM8.875 4.455v1.479h10.353v-1.48H8.875zM4.437 8.892v1.479h20.708v-1.48H4.437zm0 2.958v1.48h20.708v-1.48H4.437zm0 2.958v1.48h20.708v-1.48H4.437zm0 2.958v1.48h20.708v-1.48H4.437zm0 2.959v1.479h20.708v-1.48H4.437zm0 2.958v1.479h10.354v-1.48H4.437zm16.27 2.958a2.947 2.947 0 0 1 2.959 2.958 2.947 2.947 0 0 1-2.959 2.958A2.947 2.947 0 0 1 17.75 29.6a2.947 2.947 0 0 1 2.958-2.958zm-1.479 7.121c.465.166.96.275 1.48.275a4.37 4.37 0 0 0 1.478-.275v4.07l-1.479-.988-1.479.988v-4.07z" fill="#37CF4F" fill-rule="evenodd"/></svg>