<svg width="24" height="33" viewBox="0 0 24 33" xmlns="http://www.w3.org/2000/svg"><title>765064CF-E11D-469D-90A5-52B2A80E9E4C</title><path d="M11.691.031c-4.673 0-8.487 3.814-8.487 8.487v4.716H1.318a.943.943 0 0 0-.943.943v16.911a.943.943 0 0 0 .943.943h20.747a.943.943 0 0 0 .943-.943V14.177a.943.943 0 0 0-.943-.943h-1.886V8.518c0-4.673-3.814-8.487-8.488-8.487zm0 1.886a6.59 6.59 0 0 1 6.601 6.601v4.716H5.09V8.518a6.59 6.59 0 0 1 6.601-6.6zM2.261 15.12h18.86v15.025H2.262V15.12zm9.305 3.709a.943.943 0 0 0-.818 1.006v5.658a.943.943 0 0 0 1.886 0v-5.658a.943.943 0 0 0-1.068-1.006z" fill="#37CF4F" fill-rule="evenodd"/></svg>